/* XPM */
static char *_85b8985dd3f46669d8e52ee3bc7edc2r6J8leGXrUh8y2bs[] = {
/* columns rows colors chars-per-pixel */
"45 45 7 1 ",
"  c None",
". c black",
"X c #64DD17",
"o c #76FF03",
"O c #00BCD4",
"+ c #2196F3",
"@ c white",
/* pixels */
"                                             ",
"                                             ",
"                                             ",
"                                             ",
"                                             ",
"                                             ",
"                                             ",
"                                             ",
"                                             ",
"                   ... ...                   ",
"                   .oo..o.                   ",
"                    .ooo.                    ",
"                     .o.                     ",
"                     .X.                     ",
"                   ........                  ",
"                  ..oooooo..                 ",
"                  .oooooooo.                 ",
"                  .oooo......                ",
"                 .oooo..++OO.                ",
"                 .oooo.++OO@@.               ",
"              ....oooo.++OOOO.               ",
"             ..oo.oooo.++++O+.               ",
"             .ooo.oooo..+++++.               ",
"             .ooo.oooooo.....                ",
"             .ooo.Xooooooooo.                ",
"             .XXo.XXXooooooo.                ",
"             .XXo.XXXXXXXXoo.                ",
"             .XXX.XXXX...XXo.                ",
"             .XXX.XXXXX.XXXo.                ",
"             ..XX.XXXXX.XXXX.                ",
"              ....XXXXX.XXXX.                ",
"                 ..XXXX.XXXX.                ",
"                  .XXXX.XXXX.                ",
"                  ..........                 ",
"                                             ",
"                                             ",
"                                             ",
"                                             ",
"                                             ",
"                                             ",
"                                             ",
"                                             ",
"                                             ",
"                                             ",
"                                             "
};
