/* XPM */
static char *ee4161fd52b046fad849e717895286eam7VlloRrl1lnaxL9[] = {
/* columns rows colors chars-per-pixel */
"64 64 5 1 ",
"  c None",
". c black",
"X c gray13",
"o c #5B6DC9",
"O c white",
/* pixels */
"                                                                ",
"                                                                ",
"                                                                ",
"                                                                ",
"                                                                ",
"                                                                ",
"                                                                ",
"                                                                ",
"                                                                ",
"                                                                ",
"                                                                ",
"                                                                ",
"                                                                ",
"                                                                ",
"                                                                ",
"                                                                ",
"                                                                ",
"                                                                ",
"                                                                ",
"                                                                ",
"                                                                ",
"                                                                ",
"                                                                ",
"                                                                ",
"                                                                ",
"                                                                ",
"                                                                ",
"                                                                ",
"                                                                ",
"                                                                ",
"                             .                                  ",
"                            .o.                                 ",
"                           .ooo.                                ",
"                          .ooooo.                               ",
"                         .ooo.ooo.                              ",
"                        .oooo..ooo.                             ",
"                       .oooo....ooo.                            ",
"                      .oooo......ooo.                           ",
"                      .ooo........ooo.                          ",
"                     .ooo..........oo.                          ",
"                     .oo............oo.                         ",
"                     .oo............oo.                         ",
"                     .oX.....O.O...OXoX                         ",
"                     .XOO...O..OOOOOOX.                         ",
"                     .XOOOOOOOOOO.OOOX.                         ",
"                      .XOOO.OOO..OOOX.                          ",
"               .....   .XOOO...ooOOX.                           ",
"              ..ooo.   ...OOOOoooO....                          ",
"              .oooOO. .OOO........OOOO.                         ",
"              ....OOO.OOOOOXXXXXXOOOOOO.                        ",
"                 .OOOOOOXXXXoXXXXXXXOOOO.                       ",
"                  .OOOOXXXXoooXXXXXX.OOOO.                      ",
"                   ....XXXoooooXXXXXX.OOOO.                     ",
"                      .XXoooooooXXXXX..OOO.                     ",
"                      .XXoooooooXXXXX. .Ooo.                    ",
"                      .XXXXoXXooXXXXX. .ooo.                    ",
"                       .XXXoXXXXXXXX.   .oo.                    ",
"                      .OXXXXXXXXXOOO.   ...                     ",
"                      .OOXXXXXXOOOOOO.                          ",
"                      .OOOOO....OOOOOO.                         ",
"                      .XXOO.    ..OOOX..                        ",
"                     .ooXX.       .XXooo.                       ",
"                    .ooooo.        .ooooo.                      ",
"                   .......          .......                     "
};
